<svg xmlns="http://www.w3.org/2000/svg" version="1.0" width="600px" height="250px" viewBox="0 0 1200 550" preserveAspectRatio="xMidYMid meet" style="">


<g class="currentLayer" style=""><title>Layer 1</title><g transform="rotate(20.714340209960938 320.78598022460943,194.5435638427734) translate(0,492) scale(0.10000000149011612,-0.10000000149011612) " fill="currentColor" stroke-width="1" stroke="none" id="svg_1" class="">
<path d="M4080.2036056518555,5283.8143310546875 c-52,-20 -94,-40 -94,-44 c0,-4 14,-46 31,-92 l32,-84 l66,25 c129,48 136,53 128,71 c-4,10 -18,47 -32,83 c-13,36 -28,68 -31,71 c-4,4 -49,-9 -100,-30 z" id="svg_2"/>
<path d="M5168.2036056518555,5299.8143310546875 c-25,-8 -130,-47 -235,-87 c-218,-84 -275,-119 -320,-201 c-27,-48 -30,-63 -29,-134 c1,-79 3,-86 168,-510 c92,-236 437,-1136 767,-2000 c331,-863 604,-1573 607,-1576 c4,-4 49,9 100,29 c81,31 93,39 89,57 c-3,16 -718,1890 -1361,3566 c-86,223 -156,419 -156,435 c0,35 8,47 38,63 c41,22 387,151 404,151 c49,0 57,-13 129,-202 c51,-135 58,-173 37,-201 c-7,-9 -95,-48 -196,-86 c-101,-39 -187,-73 -191,-76 c-11,-6 61,-195 74,-195 c19,0 379,141 412,161 c49,31 100,96 119,152 c26,78 15,139 -62,340 c-56,148 -75,187 -111,227 c-73,81 -185,115 -283,87 z" id="svg_3"/>
<path d="M4215.2036056518555,4937.8143310546875 c-49,-18 -91,-36 -94,-39 c-4,-3 60,-178 140,-388 c80,-211 150,-395 156,-410 l10,-26 l98,37 c66,26 97,42 95,52 c-6,31 -306,809 -311,809 c-3,-1 -46,-16 -94,-35 z" id="svg_4"/>
<path d="M3725.2036056518555,4750.8143310546875 c-205,-79 -246,-98 -287,-135 c-67,-60 -94,-120 -93,-208 c0,-65 8,-91 111,-359 c61,-158 113,-291 116,-294 c6,-5 176,56 190,68 c4,5 -39,133 -98,285 c-58,153 -106,286 -106,295 c0,53 8,58 290,165 c113,43 206,79 208,80 c7,6 -72,195 -82,195 c-6,-1 -118,-42 -249,-92 z" id="svg_5"/>
<path d="M2614.2036056518555,4633.8143310546875 c-410,-158 -441,-175 -489,-264 c-18,-34 -22,-59 -22,-132 l0,-90 l108,-280 c60,-154 117,-298 129,-320 c49,-98 137,-150 253,-149 c65,1 95,10 445,144 c206,79 376,144 378,145 c7,5 -72,195 -82,195 c-5,0 -169,-61 -363,-135 c-194,-74 -366,-135 -381,-135 c-16,0 -37,9 -46,19 c-16,17 -217,526 -232,586 c-9,35 4,63 35,80 c16,8 183,73 372,145 c189,72 347,134 350,138 c7,7 -56,182 -69,193 c-4,3 -177,-60 -386,-140 z" id="svg_6"/>
<path d="M742.2036056518555,3919.8143310546875 c-302,-117 -571,-225 -597,-240 c-63,-37 -123,-115 -143,-185 c-46,-157 37,-347 184,-419 c49,-24 69,-28 142,-28 c83,1 90,3 340,99 c150,58 270,100 292,100 c94,2 159,-118 109,-200 c-21,-35 -36,-41 -573,-245 c-174,-66 -248,-98 -247,-109 c1,-35 68,-185 81,-182 c25,6 753,285 788,303 c107,54 181,167 182,280 c3,167 -96,314 -239,355 c-106,31 -166,19 -448,-90 c-262,-101 -310,-112 -351,-78 c-50,40 -68,125 -39,181 c17,34 18,34 436,194 c178,68 415,159 527,202 c111,43 201,81 200,84 c-2,4 -19,48 -38,99 c-19,51 -39,92 -45,91 c-5,0 -258,-96 -561,-212 z" id="svg_7"/>
<path d="M1313.2036056518555,3825.8143310546875 c-49,-20 -91,-37 -93,-38 c-3,-2 306,-817 312,-823 c2,-1 47,14 100,34 c86,33 97,40 92,58 c-13,51 -305,801 -313,802 c-4,1 -48,-14 -98,-33 z" id="svg_8"/>
<path d="M6041.2036056518555,1664.8143310546875 c-10,-6 126,-378 282,-774 l14,-36 l-106,-41 c-58,-23 -108,-40 -110,-37 c-2,2 -72,181 -154,397 c-83,217 -152,396 -155,398 c-2,2 -13,0 -23,-5 c-19,-8 -9,-37 156,-469 c97,-253 178,-462 179,-463 c4,-6 304,112 302,119 c-2,3 -82,212 -178,463 c-96,251 -179,456 -185,456 c-5,0 -15,-4 -22,-8 z" id="svg_9"/>
</g></g></svg>